<mxfile host="app.diagrams.net" modified="2024-03-15T03:47:31.481Z" agent="Mozilla/5.0 (Windows NT 10.0; Win64; x64) AppleWebKit/537.36 (KHTML, like Gecko) Chrome/122.0.0.0 Safari/537.36" version="24.0.2" etag="eHcpcYJ06vAltHRBAj5d" type="github">
  <diagram name="Page-1" id="jGKBSC2SyzaKqQY8E7lp">
    <mxGraphModel>
      <root>
        <mxCell id="0" />
        <mxCell id="1" parent="0" />
      </root>
    </mxGraphModel>
  </diagram>
</mxfile>
